<?xml version="1.0" encoding="UTF-8" standalone="no"?><!DOCTYPE svg PUBLIC "-//W3C//DTD SVG 1.1//EN" "http://www.w3.org/Graphics/SVG/1.1/DTD/svg11.dtd"><svg width="100%" height="100%" viewBox="0 0 24 29" version="1.1" xmlns="http://www.w3.org/2000/svg" xmlns:xlink="http://www.w3.org/1999/xlink" xml:space="preserve" style="fill-rule:evenodd;clip-rule:evenodd;stroke-linejoin:round;stroke-miterlimit:1.41421;"><g><path d="M12.908,0.981c1.154,1.248 2.036,17.076 -0.789,19.139c-0.922,0.673 -3.577,-0.008 -4.682,-0.036c-1.531,-0.086 -2.796,-0.796 -3.826,-2.064c-1.378,-1.705 -2.549,-2.979 -3.442,-3.675c1.586,0.381 2.897,0.529 3.888,0.406c1.519,-0.035 2.89,0.206 4.006,0.931c-2.585,-2.476 -3.935,-4.91 -4.389,-7.316c-0.356,-1.964 -0.637,-3.405 -0.895,-4.69c0.533,0.932 1.239,1.753 2.175,2.426c1.343,0.726 2.463,1.48 3.359,2.264c1.118,0.885 1.879,2.247 2.348,4.001c-0.306,-2.092 -0.27,-4.18 0,-6.265c0.266,-2.051 1.01,-3.761 2.247,-5.121Z"/><path d="M12.922,28.981c0.007,0.006 0.014,0.013 0.021,0.019l0,-0.038c0.67,-0.649 1.062,-1.51 1.208,-2.56c0.816,0.021 1.433,-0.437 1.833,-1.412c-1.08,-0.493 -1.776,-1.302 -1.864,-2.611l4.201,0l0,-2.259l-2.01,0c0.053,-1.288 0.455,-2.297 1.472,-2.816c0.706,-0.214 1.361,-0.126 1.928,0.462c0.485,0.756 0.531,1.516 0.074,2.282c1.239,-0.218 2.359,-0.709 3.074,-2.129c0.539,-1.342 0.436,-2.686 -0.499,-4.032c-1.279,-1.481 -2.729,-1.877 -4.397,-0.892c-1.162,0.752 -1.955,1.804 -2.385,3.151c-0.46,1.304 -0.659,2.631 -0.68,3.974l-1.172,0c-0.019,-1.396 0.125,-2.763 0.462,-4.097c0.356,-1.214 0.761,-2.404 1.201,-3.574c0.467,-1.174 0.861,-2.287 0.98,-3.166c0.082,-1.111 0.005,-2.155 -0.313,-3.098c-0.33,-1.023 -0.8,-2.031 -1.402,-3.023c-0.514,-0.74 -1.08,-1.455 -1.711,-2.138l0,-0.043c-0.007,0.007 -0.014,0.014 -0.021,0.022c-0.006,-0.008 -0.013,-0.015 -0.02,-0.022l0,0.043c-0.631,0.683 -0.764,17.7 -0.783,19.096l-4.595,0l0,2.259l4.201,0c-0.088,1.309 -0.784,2.118 -1.864,2.611c0.4,0.975 1.017,1.433 1.833,1.412c0.146,1.05 0.538,1.911 1.208,2.56l0,0.038c0.007,-0.006 0.014,-0.013 0.02,-0.019Z"/></g></svg>