<?xml version="1.0" standalone="no"?>
<!DOCTYPE svg PUBLIC "-//W3C//DTD SVG 20010904//EN"
 "http://www.w3.org/TR/2001/REC-SVG-20010904/DTD/svg10.dtd">
<svg version="1.0" xmlns="http://www.w3.org/2000/svg"
 width="266.000000pt" height="266.000000pt" viewBox="0 0 266.000000 266.000000"
 preserveAspectRatio="xMidYMid meet">
<metadata>
Created by potrace 1.11, written by Peter Selinger 2001-2013
</metadata>
<g transform="translate(0.000000,266.000000) scale(0.100000,-0.100000)"
fill="#000000" stroke="none">
<path d="M1434 2646 c-75 -85 -157 -255 -180 -370 -36 -187 -45 -352 -31 -576
5 -89 5 -93 -8 -53 -62 195 -183 326 -438 478 -104 61 -205 151 -252 223 -31
46 -35 50 -30 25 9 -49 37 -201 41 -223 54 -300 94 -417 198 -579 40 -62 124
-172 150 -196 6 -6 31 -33 56 -60 l45 -48 -38 21 c-77 44 -187 64 -366 67
-103 2 -196 9 -246 19 -44 9 -81 16 -82 16 -2 0 32 -35 75 -77 42 -43 100
-105 127 -137 144 -170 181 -208 242 -249 66 -44 152 -74 220 -76 22 -1 23 -4
22 -93 -1 -51 -1 -101 0 -110 1 -16 16 -17 159 -17 86 0 176 0 198 -1 l41 0
-7 -38 c-10 -54 -44 -115 -85 -150 -20 -18 -39 -32 -43 -32 -4 0 -15 -7 -25
-14 -18 -14 -17 -16 7 -54 31 -49 70 -78 118 -87 33 -6 36 -10 41 -47 6 -47
60 -159 89 -185 18 -16 20 -16 43 12 44 55 83 143 84 192 1 17 9 24 39 29 49
9 97 46 122 93 l19 38 -24 11 c-68 31 -140 130 -149 202 l-3 30 198 0 199 0 0
108 0 108 -82 -1 c-46 0 -88 1 -95 3 -17 5 -5 87 22 147 42 93 104 132 190
123 101 -12 149 -104 121 -232 -8 -37 -8 -38 13 -27 11 7 21 9 21 6 0 -9 113
45 147 71 106 81 149 239 104 382 -21 69 -48 111 -105 165 -68 65 -110 81
-201 82 -87 0 -127 -14 -200 -69 -44 -33 -124 -116 -125 -129 0 -5 -8 -21 -19
-35 -48 -68 -111 -315 -111 -434 0 -26 -3 -48 -7 -49 -12 -1 -76 -2 -94 0 -13
1 -15 13 -13 63 3 76 12 173 19 202 3 11 7 33 10 49 3 15 7 39 10 55 5 24 92
281 178 522 27 77 30 97 30 210 0 136 -8 175 -68 320 -47 112 -102 203 -186
305 -39 47 -71 85 -72 85 -1 -1 -7 -6 -13 -14z"/>
</g>
</svg>
