<?xml version="1.0" encoding="UTF-8" standalone="no"?><!DOCTYPE svg PUBLIC "-//W3C//DTD SVG 1.1//EN" "http://www.w3.org/Graphics/SVG/1.1/DTD/svg11.dtd"><svg width="100%" height="100%" viewBox="0 0 70 86" version="1.1" xmlns="http://www.w3.org/2000/svg" xmlns:xlink="http://www.w3.org/1999/xlink" xml:space="preserve" style="fill-rule:evenodd;clip-rule:evenodd;stroke-linejoin:round;stroke-miterlimit:1.41421;"><g><path d="M38.436,0.18c3.522,3.808 6.215,52.112 -2.409,58.408c-2.813,2.054 -10.917,-0.023 -14.289,-0.108c-4.67,-0.262 -8.533,-2.429 -11.674,-6.298c-4.207,-5.204 -7.782,-9.094 -10.505,-11.217c4.84,1.162 8.842,1.616 11.864,1.24c4.636,-0.108 8.822,0.629 12.226,2.839c-7.887,-7.554 -12.01,-14.985 -13.394,-22.326c-1.086,-5.995 -1.943,-10.391 -2.733,-14.312c1.627,2.844 3.782,5.349 6.638,7.403c4.099,2.215 7.519,4.517 10.252,6.909c3.411,2.702 5.736,6.859 7.167,12.21c-0.934,-6.383 -0.825,-12.755 0,-19.119c0.812,-6.258 3.082,-11.479 6.857,-15.629l0,0Z" style="fill:#fff;"/><path d="M38.48,85.631c0.02,0.02 0.041,0.039 0.061,0.059l0,-0.118c2.046,-1.98 3.242,-4.608 3.687,-7.811c2.493,0.065 4.374,-1.332 5.596,-4.309c-3.296,-1.504 -5.421,-3.973 -5.689,-7.969l12.821,0l0,-6.895l-6.135,0c0.163,-3.929 1.388,-7.01 4.491,-8.592c2.157,-0.654 4.153,-0.387 5.884,1.409c1.483,2.307 1.621,4.628 0.226,6.966c3.782,-0.668 7.202,-2.166 9.384,-6.5c1.643,-4.094 1.33,-8.195 -1.524,-12.304c-3.904,-4.518 -8.329,-5.728 -13.419,-2.723c-3.546,2.297 -5.968,5.507 -7.279,9.618c-1.403,3.978 -2.011,8.028 -2.074,12.126l-3.577,0c-0.06,-4.26 0.38,-8.432 1.409,-12.501c1.086,-3.707 2.321,-7.336 3.665,-10.909c1.425,-3.583 2.629,-6.98 2.992,-9.662c0.248,-3.39 0.013,-6.577 -0.955,-9.455c-1.009,-3.122 -2.442,-6.196 -4.28,-9.224c-1.568,-2.259 -3.295,-4.44 -5.223,-6.524l0,-0.133c-0.02,0.022 -0.041,0.045 -0.061,0.067c-0.021,-0.022 -0.041,-0.045 -0.062,-0.067l0,0.133c-1.928,2.084 -2.332,54.015 -2.391,58.275l-14.024,0l0,6.895l12.822,0c-0.269,3.996 -2.393,6.465 -5.689,7.969c1.221,2.977 3.103,4.374 5.596,4.309c0.444,3.203 1.641,5.831 3.686,7.811l0,0.118c0.021,-0.02 0.041,-0.039 0.062,-0.059Z" style="fill:#fff;"/></g></svg>