<?xml version="1.0" encoding="UTF-8" standalone="no"?><!DOCTYPE svg PUBLIC "-//W3C//DTD SVG 1.1//EN" "http://www.w3.org/Graphics/SVG/1.1/DTD/svg11.dtd"><svg width="100%" height="100%" viewBox="0 0 58 71" version="1.1" xmlns="http://www.w3.org/2000/svg" xmlns:xlink="http://www.w3.org/1999/xlink" xml:space="preserve" xmlns:serif="http://www.serif.com/" style="fill-rule:evenodd;clip-rule:evenodd;stroke-linejoin:round;stroke-miterlimit:1.41421;"><g><path d="M31.992,0.682c2.859,3.091 5.045,42.31 -1.956,47.421c-2.284,1.668 -8.864,-0.018 -11.601,-0.087c-3.792,-0.213 -6.929,-1.972 -9.479,-5.114c-3.416,-4.225 -6.318,-7.383 -8.529,-9.107c3.93,0.944 7.179,1.312 9.633,1.007c3.763,-0.088 7.162,0.511 9.926,2.305c-6.404,-6.133 -9.751,-12.166 -10.875,-18.126c-0.881,-4.868 -1.578,-8.437 -2.219,-11.621c1.322,2.309 3.071,4.343 5.39,6.011c3.328,1.798 6.104,3.668 8.323,5.61c2.77,2.193 4.657,5.568 5.82,9.913c-0.759,-5.183 -0.67,-10.356 0,-15.523c0.659,-5.081 2.502,-9.32 5.567,-12.689Z" style="fill:#f9ff90;"/><path d="M32.027,70.06c0.017,0.016 0.033,0.032 0.05,0.047l0,-0.095c1.661,-1.608 2.632,-3.742 2.993,-6.342c2.024,0.052 3.552,-1.082 4.544,-3.498c-2.677,-1.222 -4.402,-3.226 -4.62,-6.47l10.41,0l0,-5.599l-4.981,0c0.132,-3.189 1.127,-5.691 3.646,-6.976c1.751,-0.531 3.373,-0.313 4.778,1.145c1.203,1.872 1.316,3.757 0.183,5.655c3.071,-0.542 5.847,-1.758 7.619,-5.277c1.334,-3.324 1.08,-6.653 -1.238,-9.99c-3.169,-3.668 -6.762,-4.65 -10.894,-2.211c-2.879,1.866 -4.846,4.471 -5.91,7.809c-1.14,3.23 -1.633,6.518 -1.684,9.845l-2.904,0c-0.049,-3.458 0.309,-6.846 1.144,-10.149c0.882,-3.01 1.884,-5.957 2.976,-8.857c1.156,-2.91 2.134,-5.667 2.429,-7.845c0.201,-2.752 0.011,-5.34 -0.776,-7.676c-0.819,-2.535 -1.982,-5.031 -3.475,-7.49c-1.273,-1.833 -2.675,-3.604 -4.24,-5.296l0,-0.108c-0.017,0.018 -0.033,0.036 -0.05,0.054c-0.017,-0.018 -0.033,-0.036 -0.05,-0.054l0,0.108c-1.565,1.692 -1.893,43.855 -1.941,47.313l-11.386,0l0,5.599l10.41,0c-0.218,3.244 -1.943,5.248 -4.619,6.47c0.991,2.416 2.519,3.55 4.543,3.498c0.361,2.6 1.333,4.734 2.993,6.342l0,0.095c0.017,-0.015 0.034,-0.031 0.05,-0.047Z" style="fill:#f9ff90;"/></g></svg>