<svg xmlns="http://www.w3.org/2000/svg" width="19" height="15" viewBox="0 0 19 15">
  <g fill="none" fill-rule="evenodd" transform="translate(-6 -7)">
    <rect width="30" height="30"/>
    <path fill="#FFF" fill-rule="nonzero" d="M11.97512,22 C19.14496,22 23.06656,16.228602 23.06656,11.2236717 C23.06656,11.0597451 23.06656,10.8965569 23.05516,10.7341071 C23.8180718,10.1979569 24.4766302,9.5341048 25,8.77363347 C24.2885481,9.07992648 23.5338302,9.28079334 22.76104,9.36952884 C23.5748054,8.89619598 24.1838539,8.15172546 24.47484,7.27466496 C23.7096397,7.71583082 22.872491,8.02674252 21.99952,8.19398309 C20.7911829,6.94562607 18.8711467,6.6400863 17.3160574,7.44869294 C15.7609682,8.25729957 14.957569,9.97895607 15.35636,11.6482563 C12.2220408,11.4955901 9.30180159,10.0572255 7.3224,7.69112715 C6.28775329,9.42169348 6.81623079,11.6355996 8.52928,12.7470077 C7.90892331,12.7291437 7.30209232,12.5665504 6.76,12.2729496 C6.76,12.2884562 6.76,12.3047012 6.76,12.3209462 C6.76050778,14.1238383 8.06853113,15.6766679 9.8874,16.0336623 C9.31350089,16.1857301 8.71136125,16.2079593 8.12724,16.0986422 C8.63792043,17.641489 10.1013967,18.6984176 11.76916,18.728852 C10.3887986,19.7828793 8.68360523,20.3550687 6.92796,20.3533499 C6.61780671,20.3527714 6.30795509,20.334526 6,20.2987077 C7.78268332,21.4102161 9.85693419,21.999791 11.97512,21.9970464"/>
  </g>
</svg>
