<?xml version="1.0" standalone="no"?>
<!DOCTYPE svg PUBLIC "-//W3C//DTD SVG 20010904//EN"
 "http://www.w3.org/TR/2001/REC-SVG-20010904/DTD/svg10.dtd">
<svg version="1.0" xmlns="http://www.w3.org/2000/svg"
 width="1136.000000pt" height="1136.000000pt" viewBox="0 0 1136.000000 1136.000000"
 preserveAspectRatio="xMidYMid meet">
<metadata>
Created by potrace 1.11, written by Peter Selinger 2001-2013
</metadata>
<g transform="translate(0.000000,1136.000000) scale(0.100000,-0.100000)"
fill="#000000" stroke="none">
<path d="M6145 11237 c-5 -7 -42 -50 -81 -97 -39 -47 -84 -103 -100 -125 -16
-22 -32 -42 -35 -45 -3 -3 -19 -25 -34 -50 -15 -25 -31 -47 -34 -50 -12 -9
-131 -208 -131 -218 0 -6 -4 -12 -8 -14 -11 -4 -167 -321 -187 -378 -1 -3 -7
-18 -13 -33 -7 -16 -12 -34 -12 -41 0 -6 -4 -16 -9 -21 -7 -9 -64 -168 -77
-215 -12 -49 -25 -93 -43 -155 -12 -38 -23 -81 -25 -95 -3 -14 -7 -35 -10 -47
-12 -47 -17 -69 -21 -98 -3 -16 -7 -41 -10 -55 -3 -14 -8 -36 -11 -50 -2 -14
-7 -36 -9 -50 -3 -14 -7 -43 -11 -65 -3 -22 -8 -53 -11 -70 -2 -16 -6 -46 -8
-65 -3 -32 -12 -113 -20 -180 -15 -131 -33 -335 -40 -440 -15 -251 -18 -340
-18 -625 0 -376 5 -511 29 -750 3 -27 7 -75 9 -105 2 -30 7 -73 10 -95 7 -54
17 -145 19 -170 0 -11 4 -22 7 -25 4 -3 3 -14 -2 -25 -6 -16 -8 -17 -8 -3 -1
13 -58 212 -76 266 -2 7 -5 16 -6 20 0 4 -4 12 -9 17 -4 6 -13 28 -19 50 -15
48 -15 48 -92 225 -79 181 -257 488 -339 583 -10 12 -28 33 -40 47 -12 14 -34
40 -48 58 -40 50 -166 176 -220 219 -26 21 -49 41 -52 44 -8 10 -197 166 -238
196 -20 15 -39 30 -42 34 -5 5 -177 132 -220 161 -108 75 -280 188 -283 186
-1 -2 -13 7 -27 20 -13 12 -29 22 -36 22 -7 0 -19 6 -26 13 -14 14 -135 89
-208 128 -25 13 -46 27 -48 32 -2 4 -10 7 -17 7 -8 0 -21 7 -29 16 -9 8 -16
13 -16 9 0 -4 -12 3 -26 14 -15 12 -32 21 -40 21 -7 0 -14 3 -16 8 -1 4 -21
16 -42 27 -88 44 -303 229 -456 389 -41 44 -85 90 -97 103 -12 13 -20 23 -17
23 6 0 -12 22 -43 53 -12 12 -44 54 -72 92 -27 39 -54 75 -58 80 -16 20 -67
101 -105 164 -35 60 -37 62 -34 30 5 -42 14 -90 26 -149 5 -25 12 -58 15 -75
2 -16 9 -45 14 -63 5 -18 10 -35 10 -37 -1 -7 12 -84 18 -110 2 -11 6 -31 9
-45 2 -14 7 -36 10 -50 3 -14 8 -43 11 -65 2 -21 7 -43 9 -47 3 -5 7 -21 10
-36 2 -15 9 -47 14 -72 11 -53 22 -117 24 -146 2 -11 6 -25 10 -32 4 -7 5 -12
3 -12 -2 0 2 -30 10 -67 7 -38 15 -81 18 -98 3 -16 7 -41 10 -55 3 -14 7 -38
10 -55 3 -16 8 -43 11 -60 7 -36 30 -158 38 -200 3 -16 8 -40 10 -51 2 -12 7
-39 10 -60 4 -22 9 -46 11 -54 3 -8 7 -31 9 -50 3 -19 15 -80 27 -135 12 -55
23 -111 24 -125 1 -14 5 -32 8 -40 4 -8 11 -35 17 -60 16 -68 17 -73 30 -121
7 -24 16 -53 20 -64 5 -11 23 -67 41 -125 18 -58 36 -112 40 -120 4 -8 28 -69
54 -135 26 -66 85 -198 131 -292 46 -95 84 -177 84 -182 0 -5 4 -11 9 -13 4
-1 19 -23 32 -48 21 -38 90 -156 132 -225 21 -35 191 -290 197 -295 17 -16 60
-80 60 -89 0 -6 3 -11 8 -11 4 0 27 -27 52 -61 24 -33 52 -70 63 -82 10 -12
28 -35 40 -50 12 -15 30 -38 40 -50 11 -12 33 -39 50 -60 47 -57 65 -77 105
-123 20 -22 66 -73 102 -114 36 -40 136 -145 223 -232 87 -88 156 -162 153
-166 -3 -3 -6 -1 -6 5 0 6 -8 13 -17 17 -10 3 -34 15 -53 26 -41 25 -113 64
-120 65 -3 1 -32 14 -65 29 -33 15 -80 34 -105 42 -25 8 -54 19 -65 25 -28 13
-268 79 -310 85 -11 1 -31 5 -45 7 -91 18 -152 27 -200 32 -30 3 -71 7 -90 10
-116 16 -418 21 -561 10 -186 -15 -473 -6 -674 20 -27 4 -61 8 -75 10 -66 9
-118 16 -145 21 -16 3 -43 7 -58 9 -16 2 -40 6 -55 10 -27 5 -57 11 -102 20
-39 8 -71 14 -127 25 -28 6 -61 12 -72 13 -12 1 -21 4 -21 7 0 4 -6 7 -12 7
-17 1 -64 10 -88 18 -34 11 -22 -10 30 -52 184 -150 500 -467 745 -748 33 -38
69 -79 80 -91 34 -37 67 -76 120 -139 27 -33 59 -71 71 -85 12 -14 41 -47 63
-75 23 -27 57 -68 76 -90 18 -22 66 -80 107 -130 120 -149 264 -298 373 -390
60 -50 212 -160 245 -177 14 -7 27 -15 30 -18 17 -17 208 -111 285 -139 33
-13 69 -27 80 -32 55 -24 203 -59 310 -75 11 -1 20 -3 20 -4 0 -4 158 -20 210
-22 l30 -1 0 -456 -1 -456 833 1 833 1 -5 -46 c-13 -114 -34 -213 -67 -306
-22 -63 -95 -216 -108 -225 -4 -3 -18 -23 -32 -45 -43 -68 -214 -236 -270
-264 -16 -8 -28 -18 -28 -23 0 -4 -5 -8 -11 -8 -6 0 -30 -14 -55 -30 -24 -17
-44 -27 -44 -23 0 4 -4 3 -8 -2 -4 -6 -29 -21 -55 -34 -26 -14 -50 -27 -51
-30 -8 -14 111 -230 161 -291 137 -170 297 -254 503 -265 60 -4 61 -5 74 -92
26 -172 92 -375 174 -533 46 -90 132 -220 145 -220 6 0 8 -3 4 -6 -6 -6 15
-34 70 -91 18 -19 42 -46 53 -61 l21 -26 57 61 c87 93 155 185 211 286 12 20
30 52 40 71 11 19 17 37 14 40 -4 3 -1 6 5 6 7 0 12 9 12 20 0 11 5 20 10 20
6 0 9 3 8 7 -1 5 4 24 11 43 21 52 21 53 45 125 9 28 18 60 21 72 10 45 13 59
23 98 6 22 13 58 17 80 13 95 15 97 80 101 57 4 120 11 120 14 0 2 38 11 53
12 6 1 12 6 12 11 0 6 3 8 6 5 16 -16 158 70 229 139 79 77 190 237 210 304 4
13 13 34 21 46 16 25 18 23 -61 63 -72 37 -179 102 -183 112 -2 4 -8 8 -13 8
-12 0 -59 41 -144 125 -82 82 -112 117 -127 151 -6 13 -14 24 -17 24 -13 0
-119 228 -127 273 -1 4 -2 8 -4 10 -8 10 -38 170 -45 238 l-5 56 808 1 c444 0
818 1 832 1 l25 1 0 447 0 448 -398 -1 -398 -1 6 91 c3 50 7 98 10 106 2 8 6
37 9 64 3 26 11 66 17 88 5 22 8 43 5 46 -3 3 -1 11 5 19 6 7 9 13 6 13 -6 0
42 141 62 185 5 11 15 35 23 52 7 18 16 33 20 33 5 0 7 4 6 8 -7 20 93 154
171 232 164 164 281 214 501 214 136 1 194 -12 302 -65 82 -41 227 -163 228
-192 0 -4 11 -24 24 -45 12 -20 23 -39 23 -42 1 -3 8 -23 18 -45 18 -44 40
-113 50 -160 12 -52 15 -228 5 -265 -5 -19 -11 -48 -14 -65 -7 -38 -52 -153
-67 -171 -6 -8 -8 -14 -5 -14 4 0 0 -10 -8 -22 -22 -30 -20 -38 7 -32 12 3 33
7 47 10 80 15 300 78 325 93 6 3 15 6 20 6 48 4 255 116 365 198 76 57 280
263 280 283 0 3 13 23 28 43 26 33 105 159 108 171 0 3 8 22 17 42 10 21 17
42 17 48 0 5 5 10 12 10 6 0 9 3 6 6 -4 3 4 37 17 75 13 38 22 69 20 69 -3 0
0 12 6 26 5 15 12 43 15 63 3 20 7 43 10 51 27 77 32 356 10 500 -23 147 -70
301 -134 440 -19 43 -113 213 -121 220 -3 3 -13 18 -22 33 -31 56 -174 208
-270 287 -30 25 -56 47 -59 51 -15 18 -176 120 -245 156 -76 39 -187 82 -230
89 -11 2 -38 8 -60 13 -22 6 -78 13 -125 16 -47 4 -91 8 -97 10 -7 3 -13 0
-13 -6 0 -6 -7 -6 -20 1 -11 6 -20 7 -20 3 0 -4 -30 -9 -65 -11 -38 -2 -116
-17 -183 -37 -64 -20 -126 -37 -136 -40 -11 -2 -23 -10 -26 -16 -4 -6 -9 -9
-11 -7 -7 5 -139 -56 -139 -64 0 -5 -6 -8 -12 -8 -18 0 -200 -121 -235 -156
-8 -8 -17 -14 -21 -14 -15 -1 -248 -225 -299 -286 -17 -22 -47 -59 -67 -82
-20 -24 -57 -76 -83 -115 -27 -40 -54 -78 -60 -85 -7 -7 -13 -18 -13 -23 0 -5
-18 -39 -40 -75 -22 -36 -40 -68 -40 -71 0 -2 -13 -31 -29 -63 -16 -32 -27
-61 -23 -64 3 -3 1 -6 -5 -6 -11 0 -23 -29 -28 -62 -1 -10 -7 -23 -13 -30 -6
-7 -11 -16 -11 -20 -2 -12 -7 -28 -34 -103 -14 -38 -33 -95 -42 -125 -9 -30
-18 -61 -21 -68 -2 -7 -4 -14 -4 -17 0 -3 -8 -24 -16 -47 -14 -40 -51 -178
-60 -223 -11 -57 -13 -66 -17 -73 -3 -4 -8 -25 -11 -47 -4 -22 -13 -74 -22
-115 -9 -41 -17 -91 -19 -110 -3 -19 -7 -48 -10 -65 -3 -16 -7 -46 -9 -65 -3
-19 -5 -35 -6 -35 -1 0 -3 -20 -5 -45 -1 -25 -4 -45 -5 -45 -1 0 -3 -22 -5
-50 -6 -101 -9 -120 -18 -132 -5 -7 -6 -13 -1 -13 5 0 8 -15 7 -32 -1 -18 -2
-33 -3 -33 -1 0 -4 -54 -6 -120 -3 -66 -6 -125 -9 -131 -2 -8 -72 -11 -232
-10 -195 1 -228 3 -228 16 0 8 -4 18 -10 22 -7 5 -7 8 0 8 6 0 10 53 11 138 1
149 12 414 18 449 3 12 7 61 10 110 3 48 8 99 11 113 2 14 6 43 9 66 2 22 7
56 10 75 3 19 8 50 11 69 2 19 7 46 9 60 3 14 7 41 10 60 3 19 8 46 11 60 3
14 8 41 11 60 10 56 12 63 23 110 5 25 12 56 14 70 15 80 110 401 198 666 29
88 53 161 54 164 5 21 29 91 60 175 20 55 38 107 40 115 6 27 68 195 75 205 4
6 11 26 15 45 4 19 12 41 17 48 6 6 7 12 3 12 -4 0 -3 6 2 13 6 6 16 30 23 52
7 22 17 49 23 60 6 11 12 26 13 33 1 8 6 21 10 30 4 9 8 19 9 22 1 3 7 18 13
33 7 16 12 31 12 34 0 3 6 19 14 36 28 64 142 378 151 417 2 8 4 16 5 18 2 1
3 5 4 10 1 4 18 54 36 112 19 58 35 111 36 119 2 8 6 26 10 40 4 14 8 28 8 31
1 3 5 11 9 18 5 6 6 12 4 12 -3 0 -1 17 4 38 50 206 60 294 60 537 0 148 -7
307 -16 380 -2 17 -6 50 -9 75 -5 43 -7 59 -26 160 -16 89 -24 122 -36 165 -2
6 -5 19 -8 30 -7 31 -56 188 -65 210 -5 11 -25 67 -46 125 -20 58 -43 119 -50
135 -7 17 -34 79 -60 139 -76 178 -158 340 -284 568 -43 77 -94 163 -101 168
-3 3 -14 18 -24 35 -11 16 -23 34 -28 40 -5 5 -43 57 -85 115 -42 58 -79 107
-82 110 -3 3 -26 32 -51 65 -25 33 -47 62 -50 65 -3 3 -25 30 -50 60 -84 103
-180 213 -267 309 -18 20 -33 39 -33 44 0 11 -14 8 -25 -6z m-2035 -7572 c0
-2 -9 -3 -19 -2 -11 0 -18 5 -15 9 4 6 34 0 34 -7z"/>
</g>
</svg>
